<svg width="227" height="227" viewBox="0 0 227 227" fill="none" xmlns="http://www.w3.org/2000/svg">
<circle cx="113.772" cy="112.952" r="55" transform="rotate(-90 113.772 112.952)" stroke="white" stroke-width="3"/>
<circle cx="81.6841" cy="155.938" r="15.0544" transform="rotate(10.7734 81.6841 155.938)" fill="white" stroke="white" stroke-width="2"/>
<g clip-path="url(#clip0_401_95)">
<path d="M72.8592 163.598L74.6533 145.553L92.0371 148.861L87.0772 166.3L79.5834 166.919L72.8592 163.598Z" fill="#E44F26"/>
<path d="M79.8807 165.413L85.9365 164.913L90.1745 150.01L83.0688 148.658L79.8807 165.413Z" fill="#F1662A"/>
<path d="M81.8168 155.239L78.9371 154.691L79.1625 152.424L82.2408 153.01L82.6549 150.834L77.1982 149.796L77.1391 150.39L76.5325 156.488L81.4026 157.415L81.8168 155.239ZM80.7414 160.89L80.731 160.891L78.432 159.776L78.6073 158.011L76.4225 157.595L76.0774 161.069L80.3001 163.155L80.3105 163.155L80.7414 160.89Z" fill="#EBEBEB"/>
<path d="M81.8088 155.237L81.3947 157.413L84.0745 157.923L83.2853 160.698L80.733 160.891L80.3022 163.155L84.9994 162.767L85.1017 162.406L86.703 156.774L86.8677 156.2L81.8088 155.237ZM82.647 150.832L82.2329 153.009L87.4895 154.009L87.6262 153.529L87.9354 152.444L88.0987 151.87L82.647 150.832Z" fill="white"/>
</g>
<circle cx="163.214" cy="120.089" r="15.0544" transform="rotate(10.7734 163.214 120.089)" fill="white" stroke="white" stroke-width="2"/>
<g clip-path="url(#clip1_401_95)">
<path d="M154.604 126.623L156.398 108.578L173.781 111.886L168.822 129.325L161.328 129.944L154.604 126.623Z" fill="#1572B6"/>
<path d="M161.625 128.438L167.681 127.938L171.919 113.035L164.813 111.683L161.625 128.438Z" fill="#33A9DC"/>
<path d="M163.591 118.111L166.47 118.659L167.093 116.469L164.015 115.883L164.429 113.707L169.885 114.745L169.722 115.319L168.047 121.214L163.176 120.288L163.591 118.111Z" fill="white"/>
<path d="M162.528 123.765L162.518 123.766L160.219 122.651L160.394 120.885L158.209 120.47L157.864 123.945L162.086 126.031L162.097 126.03L162.528 123.765Z" fill="#EBEBEB"/>
<path d="M165.888 120.708L165.072 123.572L162.52 123.765L162.089 126.03L166.786 125.642L166.889 125.281L168.071 121.124L165.888 120.708Z" fill="white"/>
<path d="M164.436 113.708L164.022 115.884L158.765 114.884L158.815 114.386L158.925 113.264L158.984 112.671L164.436 113.708ZM163.59 118.111L163.176 120.288L160.783 119.832L160.832 119.335L160.944 118.213L161.003 117.619L163.59 118.111Z" fill="#EBEBEB"/>
</g>
<circle cx="92.6899" cy="58.2261" r="15.0544" transform="rotate(10.7734 92.6899 58.2261)" fill="white" stroke="white" stroke-width="2"/>
<g clip-path="url(#clip2_401_95)">
<path d="M84.4805 46.1581L104.758 50.0165L100.9 70.2941L80.6221 66.4357L84.4805 46.1581Z" fill="#F7DF1E"/>
<path d="M86.5879 64.118L88.3183 63.4742C88.5167 64.0619 88.7036 64.5629 89.3568 64.6872C89.983 64.8063 90.4244 64.6365 90.6057 63.6838L91.8386 57.2046L93.7441 57.5672L92.5061 64.0733C92.1306 66.047 90.8027 66.7252 89.1147 66.4041C87.5904 66.114 86.8557 65.1561 86.5878 64.1179M93.365 65.196L95.0875 64.5929C95.369 65.3376 95.8067 65.9286 96.7458 66.1073C97.5354 66.2576 98.114 65.9586 98.2176 65.4141C98.3419 64.7608 97.8687 64.4309 97.0701 63.8842L96.6327 63.5892C95.3692 62.7425 94.5971 61.8339 94.8923 60.2822C95.1643 58.8529 96.4604 57.9711 98.1619 58.2949C99.3733 58.5254 100.164 59.1132 100.58 60.3348L98.9154 61.0054C98.7 60.358 98.3903 60.0593 97.8458 59.9557C97.2877 59.8495 96.8665 60.136 96.7784 60.5988C96.6696 61.1704 96.9795 61.4693 97.7288 61.9786L98.1663 62.2734C99.654 63.2759 100.431 64.1571 100.128 65.7495C99.8019 67.4647 98.2757 68.1474 96.4654 67.803C94.6959 67.4663 93.7131 66.4048 93.3649 65.196" fill="white"/>
</g>
<defs>
<clipPath id="clip0_401_95">
<rect width="22.9349" height="22.9349" fill="white" transform="translate(72.3477 143.655) rotate(10.7734)"/>
</clipPath>
<clipPath id="clip1_401_95">
<rect width="22.9349" height="22.9349" fill="white" transform="translate(154.092 106.68) rotate(10.7734)"/>
</clipPath>
<clipPath id="clip2_401_95">
<rect width="20.6414" height="20.6414" fill="white" transform="translate(84.4805 46.1581) rotate(10.7734)"/>
</clipPath>
</defs>
</svg>
