<svg width="49" height="30" viewBox="0 0 49 30" fill="none" xmlns="http://www.w3.org/2000/svg">
<path d="M0.796875 8.62891H18.2109V14.9688H17.8594C17.5391 13.8594 17.25 13.0312 16.9922 12.4844C16.7422 11.9297 16.4141 11.4062 16.0078 10.9141C15.5156 10.3281 14.9805 9.91016 14.4023 9.66016C13.4414 9.26172 12.2734 9.0625 10.8984 9.0625H7.67578V16.8438H8.54297C9.83203 16.8438 10.8555 16.2891 11.6133 15.1797C12.0039 14.6094 12.293 13.9297 12.4805 13.1406C12.5742 12.8047 12.6602 12.3086 12.7383 11.6523H13.1484V22.3867H12.7383C12.6445 21.8086 12.5312 21.2656 12.3984 20.7578C12.2734 20.2422 12.1289 19.8242 11.9648 19.5039C11.8086 19.1836 11.6055 18.8633 11.3555 18.543C10.6523 17.6758 9.65234 17.2422 8.35547 17.2422H7.67578V24.5664H10.3711C11.168 24.5664 11.8828 24.5117 12.5156 24.4023C13.1562 24.2852 13.7305 24.1094 14.2383 23.875C14.7461 23.6328 15.2227 23.3203 15.668 22.9375C16.4336 22.2891 17.0273 21.4805 17.4492 20.5117C17.6914 19.957 17.9453 19.207 18.2109 18.2617H18.6445V25H0.820312L0.796875 24.5664H1.24219C3.22656 24.5664 4.21875 23.5664 4.21875 21.5664V12.0391C4.21875 11.0234 3.97656 10.2734 3.49219 9.78906C3.00781 9.30469 2.25781 9.0625 1.24219 9.0625H0.796875V8.62891Z" fill="white"/>
<path d="M24.8594 6.33594V28.1797H23.8867V6.33594H24.8594Z" fill="white"/>
<path d="M48.2031 8.62891H30.7891V14.9688H31.1406C31.4609 13.8594 31.75 13.0312 32.0078 12.4844C32.2578 11.9297 32.5859 11.4062 32.9922 10.9141C33.4844 10.3281 34.0195 9.91016 34.5977 9.66016C35.5586 9.26172 36.7266 9.0625 38.1016 9.0625H41.3242V16.8438H40.457C39.168 16.8438 38.1445 16.2891 37.3867 15.1797C36.9961 14.6094 36.707 13.9297 36.5195 13.1406C36.4258 12.8047 36.3398 12.3086 36.2617 11.6523H35.8516V22.3867H36.2617C36.3555 21.8086 36.4688 21.2656 36.6016 20.7578C36.7266 20.2422 36.8711 19.8242 37.0352 19.5039C37.1914 19.1836 37.3945 18.8633 37.6445 18.543C38.3477 17.6758 39.3477 17.2422 40.6445 17.2422H41.3242V24.5664H38.6289C37.832 24.5664 37.1172 24.5117 36.4844 24.4023C35.8438 24.2852 35.2695 24.1094 34.7617 23.875C34.2539 23.6328 33.7773 23.3203 33.332 22.9375C32.5664 22.2891 31.9727 21.4805 31.5508 20.5117C31.3086 19.957 31.0547 19.207 30.7891 18.2617H30.3555V25H48.1797L48.2031 24.5664H47.7578C45.7734 24.5664 44.7812 23.5664 44.7812 21.5664V12.0391C44.7812 11.0234 45.0234 10.2734 45.5078 9.78906C45.9922 9.30469 46.7422 9.0625 47.7578 9.0625H48.2031V8.62891Z" fill="white"/>
</svg>
