<svg width="301" height="301" viewBox="0 0 301 301" fill="none" xmlns="http://www.w3.org/2000/svg">
<circle cx="150.432" cy="150.691" r="97.7216" transform="rotate(-90.4014 150.432 150.691)" stroke="white" stroke-width="3"/>
<circle cx="171.486" cy="248.731" r="15.0544" transform="rotate(-81.6847 171.486 248.731)" fill="white" stroke="white" stroke-width="2"/>
<g clip-path="url(#clip0_401_68)">
<path d="M168.725 239.676C168.593 239.933 168.467 240.194 168.347 240.458C168.165 240.384 167.984 240.314 167.806 240.25C164.883 239.188 162.395 239.239 161.393 240.509C160.433 241.726 160.914 244.017 162.504 246.492C162.661 246.736 162.824 246.976 162.993 247.211C162.84 247.33 162.69 247.452 162.542 247.576C160.162 249.579 158.964 251.759 159.563 253.262C160.138 254.702 162.363 255.429 165.301 255.287C165.592 255.273 165.883 255.251 166.173 255.222C166.218 255.562 166.271 255.892 166.332 256.209C166.878 259.044 168.1 260.982 169.629 261.206C171.208 261.437 173.063 259.818 174.434 257.149C174.544 256.933 174.65 256.713 174.75 256.492C175.04 256.611 175.334 256.722 175.63 256.825C178.359 257.768 180.649 257.677 181.606 256.464C182.595 255.212 182.12 252.797 180.492 250.276C180.36 250.071 180.222 249.87 180.08 249.673C180.328 249.48 180.572 249.281 180.809 249.076C182.989 247.182 184.054 245.154 183.481 243.718C182.89 242.236 180.561 241.442 177.564 241.593C177.329 241.605 177.094 241.623 176.86 241.646C176.836 241.478 176.81 241.312 176.781 241.151C176.241 238.088 174.954 235.959 173.353 235.725C171.819 235.501 170.075 237.062 168.725 239.676ZM175.698 241.342C175.724 241.488 175.747 241.638 175.769 241.79C174.701 241.963 173.552 242.239 172.353 242.608C171.332 241.94 170.322 241.365 169.353 240.903C169.467 240.653 169.583 240.412 169.703 240.18C170.859 237.941 172.27 236.678 173.194 236.813C174.179 236.957 175.231 238.698 175.698 241.342ZM177.619 242.692C178.944 242.625 180.114 242.759 181 243.061C181.796 243.332 182.296 243.717 182.46 244.126C182.807 244.997 181.952 246.626 180.088 248.245C179.867 248.436 179.641 248.622 179.41 248.8C178.729 247.968 177.921 247.117 177.01 246.268C177.081 245.02 177.072 243.83 176.982 242.739C177.194 242.718 177.406 242.703 177.619 242.692ZM180.937 253.986C181.099 254.811 181.016 255.437 180.743 255.783C180.162 256.519 178.323 256.591 175.99 255.785C175.714 255.689 175.441 255.586 175.171 255.475C175.554 254.465 175.889 253.334 176.17 252.114C177.265 251.554 178.285 250.949 179.192 250.322C179.322 250.502 179.447 250.686 179.568 250.872C180.288 251.987 180.756 253.068 180.937 253.986ZM173.455 256.646C172.849 257.827 172.147 258.772 171.442 259.387C170.808 259.94 170.224 260.181 169.788 260.117C168.861 259.981 167.879 258.425 167.412 256.001C167.355 255.706 167.306 255.4 167.264 255.083C168.348 254.916 169.494 254.656 170.664 254.312C171.702 254.986 172.742 255.571 173.744 256.046C173.653 256.249 173.556 256.449 173.455 256.646ZM165.248 254.188C162.731 254.31 160.932 253.722 160.585 252.854C160.216 251.929 161.196 250.147 163.25 248.418C163.384 248.305 163.521 248.195 163.659 248.087C164.346 248.944 165.144 249.808 166.028 250.651C165.964 251.865 165.974 253.038 166.059 254.128C165.79 254.155 165.519 254.175 165.249 254.188L165.248 254.188ZM169.569 243.594C169.102 243.78 168.64 243.976 168.181 244.183C168.403 243.385 168.653 242.626 168.927 241.918C169.599 242.241 170.295 242.622 171.002 243.055C170.521 243.225 170.043 243.405 169.569 243.594ZM164.548 247.438C165.166 247.016 165.846 246.601 166.578 246.203C166.384 247.2 166.236 248.204 166.137 249.215C165.556 248.624 165.024 248.028 164.548 247.438ZM168.262 252.588C168.659 252.902 169.063 253.206 169.475 253.5C168.676 253.707 167.898 253.87 167.151 253.987C167.095 253.237 167.075 252.442 167.092 251.619C167.475 251.951 167.865 252.274 168.262 252.588L168.262 252.588ZM174.884 252.735C174.669 253.556 174.428 254.324 174.164 255.028C173.47 254.697 172.755 254.309 172.035 253.873C172.514 253.708 172.988 253.531 173.459 253.343C173.943 253.15 174.418 252.947 174.884 252.735ZM178.519 249.449C177.887 249.884 177.196 250.309 176.46 250.714C176.551 250.229 176.633 249.733 176.707 249.228C176.783 248.708 176.846 248.193 176.898 247.685C177.499 248.279 178.043 248.87 178.519 249.449ZM173.524 243.413C174.35 243.186 175.143 243.008 175.89 242.885C175.951 243.648 175.97 244.466 175.948 245.321C175.56 244.989 175.166 244.665 174.766 244.349C174.359 244.028 173.945 243.716 173.524 243.413ZM174.084 245.212C174.698 245.696 175.296 246.2 175.878 246.723C175.819 247.508 175.733 248.29 175.619 249.069C175.503 249.862 175.365 250.629 175.209 251.365C174.502 251.711 173.782 252.03 173.051 252.322L173.051 252.322C172.324 252.612 171.586 252.874 170.839 253.109C170.19 252.671 169.558 252.21 168.944 251.725L168.944 251.725C168.329 251.24 167.733 250.732 167.157 250.202C167.211 249.436 167.294 248.654 167.409 247.869L167.409 247.869C167.525 247.08 167.668 246.306 167.837 245.557C168.539 245.218 169.253 244.904 169.977 244.616C170.703 244.325 171.438 244.059 172.182 243.816C172.832 244.259 173.467 244.725 174.084 245.212ZM162.257 241.19C162.874 240.409 164.907 240.367 167.431 241.284C167.592 241.342 167.755 241.405 167.92 241.472C167.522 242.494 167.173 243.615 166.884 244.801C165.785 245.355 164.772 245.948 163.881 246.562C163.725 246.344 163.574 246.122 163.429 245.897C162.067 243.777 161.678 241.924 162.257 241.19ZM169.216 248.133C169.4 246.876 170.567 246.006 171.824 246.19C173.081 246.374 173.95 247.541 173.767 248.798C173.583 250.055 172.415 250.924 171.159 250.741C169.902 250.557 169.032 249.389 169.216 248.133Z" fill="#00D8FF"/>
</g>
<circle cx="240.066" cy="104.617" r="15.0544" transform="rotate(-81.6847 240.066 104.617)" fill="white" stroke="white" stroke-width="2"/>
<g clip-path="url(#clip1_401_68)">
<path d="M230.707 103.104C230.21 106.502 231.992 108.932 236.053 110.393C234.146 108.813 233.579 107.212 234.351 105.589C234.791 104.663 235.758 104.097 236.829 103.47C238.573 102.449 240.592 101.267 241.054 98.1087C241.55 94.7106 239.768 92.2809 235.708 90.8197C237.614 92.3999 238.181 94.0012 237.41 95.6238C236.97 96.5496 236.002 97.1159 234.932 97.7428C233.187 98.7639 231.168 99.9457 230.707 103.104ZM239.191 110.852C238.695 114.25 240.477 116.68 244.537 118.141C242.631 116.561 242.064 114.959 242.835 113.337C243.275 112.411 244.243 111.845 245.313 111.218C247.058 110.197 249.077 109.015 249.538 105.856C250.035 102.458 248.253 100.029 244.192 98.5674C246.098 100.148 246.666 101.749 245.894 103.372C245.454 104.297 244.487 104.864 243.416 105.49C241.672 106.512 239.653 107.693 239.191 110.852Z" fill="url(#paint0_linear_401_68)"/>
</g>
<circle cx="68.3822" cy="205.302" r="15.0544" transform="rotate(-81.6847 68.3822 205.302)" fill="white" stroke="white" stroke-width="2"/>
<g clip-path="url(#clip2_401_68)">
<path d="M70.8634 197.311C70.7521 198.101 70.8419 198.814 71.0391 199.43C70.5908 199.58 70.188 199.736 69.9098 199.734C69.5855 199.728 69.384 199.75 69.011 199.644C68.638 199.539 68.1291 199.237 68.0872 199.235C68.0453 199.233 67.8444 199.25 67.7738 199.704C67.7032 200.158 67.7368 200.564 67.85 200.627C67.9632 200.69 68.2233 200.817 68.4958 200.916C68.8977 201.055 70.2518 202.101 70.9552 202.689C70.6312 202.798 70.3473 202.892 70.1323 202.89C69.8081 202.885 69.6065 202.906 69.2335 202.801C68.8605 202.696 68.3518 202.393 68.3098 202.391C68.2678 202.389 68.0669 202.407 67.9964 202.861C67.9258 203.315 67.9593 203.721 68.0725 203.784C68.1858 203.847 68.4595 203.937 68.7185 204.072C68.9774 204.207 71.2795 205.671 71.8736 206.053C72.1141 206.208 72.3511 206.367 72.5845 206.533C72.5845 206.533 72.5963 206.539 72.6151 206.554C72.6883 206.606 72.7608 206.659 72.8326 206.712L72.8367 206.713C72.9393 206.791 73.0329 206.873 73.0281 206.906C73.0245 206.93 72.7203 206.932 72.3267 206.795C71.4953 206.504 70.2218 205.917 70.1758 205.915C70.1509 205.911 69.9304 205.803 69.7621 206.116C69.5952 206.421 69.7766 206.565 69.7724 206.594C69.7682 206.623 69.8354 206.654 69.8354 206.654C69.8354 206.654 68.3918 206.076 68.239 207.122C68.1435 207.775 68.7269 208.78 69.3064 209.321C69.5083 209.869 69.7112 210.416 69.9148 210.963C70.0156 211.227 70.1152 211.499 70.2088 211.753C70.1899 211.768 70.1668 211.781 70.1479 211.795C68.6115 212.862 67.3148 215.062 65.5149 214.698C64.859 214.564 63.1563 214.083 61.6664 209.547C60.4597 205.816 61.3398 203.116 62.4638 202.791C64.0686 202.325 66.5455 204.903 66.4249 208.558C66.3773 209.952 65.7431 210.594 65.5182 210.747C65.2837 210.907 65.2671 210.934 65.2982 211.01C65.3433 211.135 65.5401 211.088 65.6536 211.062C65.9503 210.996 66.5109 210.626 66.8642 209.914C67.1757 209.284 67.5306 207.694 67.0629 205.637C66.5381 203.336 64.4435 201.29 62.4072 201.503C60.3419 201.712 59.2015 204.923 59.8559 208.214C60.2455 210.171 60.9922 212.34 62.1359 213.989C63.4958 215.948 64.8571 216.425 65.4604 216.4C67.602 216.303 69.3775 213.629 70.5498 212.626C70.5744 212.689 70.5955 212.747 70.6137 212.796C70.8149 213.412 71.6396 215.77 72.7709 216.493C74.0524 217.313 75.1413 216.738 75.343 216.282C75.9678 214.866 75.4539 213.242 74.3577 212.25C73.2615 211.258 71.6682 211.127 70.8899 211.397C70.8811 211.4 70.8721 211.403 70.8627 211.41C70.7977 211.248 70.7291 211.082 70.664 210.921C70.5423 210.624 70.4271 210.324 70.3183 210.022C70.6822 210.219 71.1259 210.389 71.78 210.535C72.548 210.711 73.6029 210.54 74.0607 210.18C74.2616 210.02 74.2977 209.801 74.3182 209.661C74.3895 209.173 74.0164 208.895 73.5727 208.581C73.0293 208.198 72.3866 207.829 72.3866 207.829C72.3866 207.829 74.181 208.433 74.3139 207.524C74.3622 207.193 73.9813 206.796 73.784 206.615L73.7881 206.616C73.7881 206.616 73.7769 206.606 73.7504 206.585C73.7015 206.544 73.6714 206.518 73.6714 206.518L73.6632 206.517C73.4511 206.351 72.9697 205.977 72.1622 205.407C71.1214 204.672 69.7965 203.917 69.7965 203.917C69.7965 203.917 70.1468 203.918 70.7419 203.832C71.0912 203.781 71.4892 203.629 71.8688 203.515C72.0355 203.675 72.1267 203.772 72.1267 203.772L72.1315 203.769C72.2563 203.897 72.3923 204.035 72.5224 204.185C72.9938 204.714 73.5312 205.341 73.698 205.442C73.896 205.559 74.0521 205.561 74.2002 205.414C74.3087 205.307 74.3524 205.094 74.3721 204.873C74.4023 204.464 74.3448 204.164 74.3034 204.015C74.2569 203.784 74.1744 203.51 74.0317 203.245C73.7699 202.755 73.3421 202.418 72.7227 202.352C72.3819 202.315 72.0267 202.377 71.6885 202.467C71.6367 202.417 71.5843 202.372 71.5324 202.322C70.6136 201.474 69.5726 200.769 69.5726 200.769C69.5726 200.769 69.9229 200.77 70.5181 200.684C70.8195 200.643 71.1584 200.52 71.486 200.416C71.9232 201.151 72.4839 201.646 72.8678 201.85C73.582 202.221 73.9505 202.068 74.0852 201.695C74.1478 201.527 74.1013 201.266 74.0494 201.073C74.0088 200.831 73.9206 200.539 73.7685 200.251C73.5067 199.761 73.1142 199.269 72.4948 199.204C72.2119 199.175 71.9241 199.209 71.6403 199.273C71.4905 198.681 71.4675 197.943 71.709 197.042C72.228 195.108 73.5123 194.899 74.0181 195.049C74.5238 195.199 74.7445 195.653 74.8114 195.802C74.8783 195.951 74.9005 196.001 74.9643 195.998C75.0576 195.994 75.0632 195.928 75.0636 195.809C75.0582 195.644 74.7971 194.715 73.8519 194.539C72.6459 194.299 71.15 195.263 70.8634 197.311ZM73.762 213.235C74.3774 213.992 74.5132 214.941 74.2285 215.3C73.923 215.686 72.8973 215.367 72.2624 214.456C71.8749 213.901 71.5409 213.21 71.3416 212.755C71.2976 212.651 71.2355 212.499 71.1569 212.314C71.1446 212.283 71.1388 212.265 71.1388 212.265L71.0912 212.157C72.2087 212.02 73.1142 212.44 73.762 213.235ZM71.2246 208.01C71.7452 208.318 73.0934 209 72.9726 209.278C72.8702 209.517 71.7733 209.513 70.7624 209.006C70.2551 208.75 69.6736 208.281 69.4577 208.026C69.1128 207.612 69.0379 207.2 69.2131 207.129C69.4414 207.04 70.8979 207.818 71.2246 208.01ZM73.6743 204.362C73.71 204.464 73.7298 204.56 73.6989 204.597C73.6781 204.624 73.6223 204.544 73.6223 204.544C73.6223 204.544 73.1652 203.975 72.9538 203.746C72.8297 203.613 72.6837 203.457 72.5182 203.289L72.5719 203.297C73.2043 203.39 73.5406 204.064 73.6743 204.362L73.6743 204.362ZM73.4263 201.235C73.3664 201.298 73.2029 201.262 72.7206 200.951C72.5314 200.83 72.2239 200.566 71.9512 200.15C72.0895 200.128 72.2219 200.118 72.3411 200.14C73.1382 200.26 73.3524 200.874 73.4263 201.235Z" fill="#CD6799"/>
</g>
<circle cx="86.3822" cy="77.3023" r="15.0544" transform="rotate(-81.6847 86.3822 77.3023)" fill="white" stroke="white" stroke-width="2"/>
<g clip-path="url(#clip3_401_68)">
<path d="M76.3354 82.6083C76.1461 83.9031 77.1393 85.0268 78.3746 85.1636C79.5613 85.2949 81.0828 85.572 82.2736 86.1392C83.4679 86.7081 84.1648 87.477 84.1106 88.5586L85.259 88.7264C85.5167 87.6746 86.4044 87.1373 87.7117 86.934C89.015 86.7313 90.552 86.9013 91.7267 87.1151C92.9493 87.3376 94.2228 86.5451 94.412 85.2501L96.3511 71.983C96.5404 70.6882 95.5471 69.5647 94.3118 69.428C93.1251 69.2965 91.6037 69.0196 90.4129 68.4523C89.2186 67.8831 88.5214 67.116 88.5756 66.0344L87.4272 65.8666C87.1695 66.9184 86.2821 67.4539 84.9749 67.6574C83.6717 67.8602 82.1345 67.6902 80.9597 67.4765C79.7372 67.254 78.4637 68.0461 78.2745 69.341L76.3353 82.6085L76.3354 82.6083ZM89.0224 73.5634C90.7147 73.8107 91.5565 75.2229 91.2503 77.3177L90.7291 80.8837C90.7142 80.9857 90.6594 81.0776 90.5767 81.1392C90.494 81.2007 90.3903 81.2269 90.2883 81.212L81.4423 79.9191C81.3918 79.9118 81.3432 79.8945 81.2994 79.8684C81.2555 79.8422 81.2173 79.8077 81.1868 79.7668C81.1563 79.7258 81.1341 79.6793 81.1216 79.6298C81.1091 79.5803 81.1065 79.5288 81.1138 79.4783L81.632 75.9328C81.8873 74.1861 83.0011 73.1781 84.4538 73.3904C85.4734 73.5394 86.2735 74.444 86.2897 75.4498L86.343 75.4576C86.6852 74.1415 87.743 73.3764 89.0224 73.5634ZM82.7974 76.4795L82.5003 78.5127L85.3722 78.9324L85.6225 77.2199C85.816 75.8961 85.3896 75.0882 84.4367 74.9489C83.5439 74.8184 82.959 75.3741 82.7974 76.4794L82.7974 76.4795ZM86.5118 79.099L89.6767 79.5616L89.9848 77.4535C90.1862 76.0753 89.7399 75.2643 88.7005 75.1124C87.661 74.9604 87.0182 75.633 86.8068 77.0795L86.5116 79.099L86.5118 79.099Z" fill="#7E13F8"/>
</g>
<circle cx="233.382" cy="200.302" r="15.0544" transform="rotate(-81.6847 233.382 200.302)" fill="white" stroke="white" stroke-width="2"/>
<g clip-path="url(#clip4_401_68)">
<path d="M236.479 195.575C236.39 194.726 235.656 194.083 234.775 194.112C233.894 194.141 233.189 194.872 233.189 195.75L233.189 195.809C233.218 196.716 233.982 197.418 234.892 197.389C235.333 197.359 235.715 197.184 235.979 196.92C237.947 197.915 239.387 199.437 240.591 201.719C241.413 203.269 241.707 204.878 241.502 206.488C241.325 207.804 240.738 208.828 239.768 209.472C238.329 210.408 236.772 210.496 235.215 209.706C234.099 209.15 233.277 208.272 232.866 207.716C232.484 207.833 231.838 208.009 231.368 208.097C234.452 212.339 238.623 211.9 240.591 210.613C242.06 209.647 242.97 207.687 242.97 205.522C242.97 204.937 242.911 204.352 242.765 203.767C242.03 200.022 239.798 197.184 236.479 195.575ZM232.836 190.425C230.222 192.649 228.783 195.926 228.783 199.671L228.783 200.139C228.254 200.402 227.901 200.958 227.901 201.572L227.901 201.631C227.931 202.538 228.694 203.24 229.605 203.211C230.486 203.181 231.191 202.45 231.191 201.572L231.191 201.514C231.162 200.87 230.751 200.314 230.193 200.08L230.193 199.554C230.193 197.33 230.839 195.224 232.102 193.322C233.071 191.859 234.334 190.806 235.862 190.221C237.095 189.723 238.3 189.752 239.328 190.279C240.885 191.098 241.737 192.473 241.737 194.287C241.737 195.458 241.384 196.569 241.12 197.155C241.413 197.476 241.883 198.062 242.177 198.471C242.765 197.213 243.088 195.926 243.088 194.697C243.088 191.888 241.531 189.811 239.974 189.021C238.27 188.173 235.333 188.231 232.836 190.425ZM236.978 205.288C237.859 205.259 238.564 204.527 238.564 203.65L238.564 203.591C238.535 202.684 237.771 201.982 236.86 202.011C235.979 202.04 235.274 202.772 235.274 203.65L235.274 203.708C235.274 203.767 235.274 203.854 235.303 203.913C233.306 205.112 231.133 205.61 228.783 205.434C227.02 205.317 225.493 204.732 224.23 203.708C223.143 202.86 222.614 201.221 222.585 200.109C222.526 197.008 226.403 195.692 227.96 195.604C228.048 195.224 228.254 194.58 228.401 194.141C223.642 194.492 221.175 197.418 221.175 200.226C221.175 202.86 223.084 205.288 225.904 206.254C229.664 207.599 233.277 206.722 236.126 205.083C236.332 205.229 236.655 205.317 236.978 205.288L236.978 205.288Z" fill="#764ABC"/>
</g>
<circle cx="167.382" cy="56.3022" r="15.0544" transform="rotate(-81.6847 167.382 56.3022)" fill="white" stroke="white" stroke-width="2"/>
<g clip-path="url(#clip5_401_68)">
<path d="M156.175 56.3843C156.175 56.5383 156.176 56.6556 156.181 56.6976C156.192 56.8036 156.201 56.9098 156.21 57.0161C156.478 59.9972 158.087 62.7911 160.56 64.5603C161.918 65.5388 163.492 66.1748 165.148 66.4144C165.725 66.4984 165.895 66.5089 166.677 66.5089C167.458 66.5089 167.629 66.4984 168.206 66.4144C172.149 65.8439 175.462 63.0369 176.689 59.2316C176.908 58.5499 177.058 57.8316 177.149 57.0143C177.184 56.6967 177.184 55.3212 177.149 55.0027C176.993 53.5931 176.644 52.3978 176.043 51.2201C175.95 51.0389 175.925 51.0039 175.904 51.0284C175.893 51.0459 174.86 51.8159 173.612 52.7391L171.344 54.4182L168.231 56.5217C167.189 57.2215 166.152 57.9279 165.119 58.6409C165.117 58.6488 166.501 58.6567 168.19 58.6611C171.148 58.6672 171.266 58.6698 171.336 58.7066C171.418 58.7422 171.484 58.8062 171.523 58.8868C171.556 58.9524 171.562 59.0093 171.562 59.3199L171.562 59.6761L171.502 59.7706C171.466 59.829 171.414 59.8764 171.353 59.9079L171.26 59.9517L167.145 59.9464L163.028 59.9403L162.947 59.8773C162.897 59.8343 162.855 59.7828 162.822 59.7251C162.781 59.6411 162.778 59.6078 162.778 59.2526C162.778 58.8343 162.793 58.7643 162.912 58.6558C164.18 57.8043 165.452 56.9599 166.728 56.1227C168.82 54.7425 170.911 53.3614 173.002 51.9796L175.521 50.3171L175.466 50.2331C174.934 49.4327 174.298 48.707 173.573 48.0753C172.059 46.7525 170.196 45.8946 168.206 45.6043C167.629 45.5203 167.459 45.5098 166.677 45.5098C165.895 45.5098 165.725 45.5203 165.148 45.6043C161.205 46.1748 157.892 48.9809 156.665 52.7863C156.439 53.4978 156.285 54.2304 156.207 54.9729C156.185 55.4428 156.174 55.9131 156.175 56.3834L156.175 56.3843ZM162.49 52.8239C162.49 52.5203 162.494 52.4669 162.531 52.3987C162.556 52.3498 162.59 52.3063 162.631 52.2707C162.673 52.2351 162.721 52.2081 162.773 52.1913C162.826 52.1756 163.968 52.1712 166.539 52.1756L170.23 52.1808L169.232 52.8318L168.235 53.4846L165.552 53.4846C163.818 53.4846 162.842 53.4758 162.796 53.4644C162.741 53.4498 162.69 53.4241 162.646 53.3891C162.601 53.354 162.564 53.3103 162.537 53.2606C162.493 53.1766 162.49 53.1468 162.49 52.8231L162.49 52.8239Z" fill="black"/>
</g>
<defs>
<linearGradient id="paint0_linear_401_68" x1="234.767" y1="117.436" x2="249.546" y2="95.0263" gradientUnits="userSpaceOnUse">
<stop stop-color="#2298BD"/>
<stop offset="1" stop-color="#0ED7B5"/>
</linearGradient>
<clipPath id="clip0_401_68">
<rect width="25.7559" height="22.9349" fill="white" transform="translate(158.315 259.555) rotate(-81.6847)"/>
</clipPath>
<clipPath id="clip1_401_68">
<rect width="25.7595" height="19.0811" fill="white" transform="translate(228.844 115.848) rotate(-81.6847)"/>
</clipPath>
<clipPath id="clip2_401_68">
<rect width="22.9349" height="17.199" fill="white" transform="translate(58.2139 215.405) rotate(-81.6847)"/>
</clipPath>
<clipPath id="clip3_401_68">
<rect width="22.9349" height="18.2748" fill="white" transform="translate(75.6465 87.3225) rotate(-81.6847)"/>
</clipPath>
<clipPath id="clip4_401_68">
<rect width="23" height="22" fill="white" transform="translate(221.175 211.51) rotate(-90)"/>
</clipPath>
<clipPath id="clip5_401_68">
<rect width="21" height="21" fill="white" transform="translate(156.175 66.5097) rotate(-90)"/>
</clipPath>
</defs>
</svg>
