<svg width="356" height="356" viewBox="0 0 356 356" fill="none" xmlns="http://www.w3.org/2000/svg">
<circle cx="178.124" cy="178.124" r="140.654" transform="rotate(-17.2252 178.124 178.124)" stroke="white" stroke-width="3"/>
<circle cx="52.0251" cy="108.939" r="15.0544" fill="white" stroke="white" stroke-width="2"/>
<g clip-path="url(#clip0_401_48)">
<path d="M63.0595 107.918L53.0459 97.9045C52.4696 97.3279 51.5343 97.3279 50.9572 97.9045L48.8778 99.9839L51.5156 102.622C52.1286 102.415 52.8315 102.554 53.3201 103.042C53.8111 103.534 53.949 104.243 53.7369 104.858L56.279 107.4C56.894 107.188 57.6037 107.325 58.0949 107.817C58.7814 108.503 58.7814 109.616 58.0949 110.302C57.4082 110.989 56.2959 110.989 55.6089 110.302C55.0925 109.785 54.9649 109.027 55.2263 108.391L52.8556 106.02L52.8553 112.259C53.0272 112.344 53.1842 112.456 53.3201 112.591C54.0067 113.278 54.0067 114.39 53.3201 115.077C52.6334 115.764 51.5206 115.764 50.8349 115.077C50.1484 114.39 50.1484 113.278 50.8349 112.591C50.9994 112.427 51.195 112.296 51.4102 112.208V105.911C51.1946 105.823 50.999 105.693 50.8349 105.527C50.3148 105.008 50.1897 104.245 50.4562 103.606L47.856 101.006L40.9898 107.871C40.4129 108.449 40.4129 109.384 40.9898 109.961L51.0036 119.974C51.5801 120.551 52.5153 120.551 53.0925 119.974L63.0594 110.007C63.6362 109.43 63.6362 108.494 63.0594 107.918" fill="#DE4C36"/>
</g>
<circle cx="318.643" cy="201.825" r="15.0544" fill="white" stroke="white" stroke-width="2"/>
<path d="M326.41 195.862L318.574 209.875C318.537 209.941 318.483 209.996 318.418 210.034C318.353 210.072 318.279 210.093 318.204 210.093C318.128 210.093 318.054 210.073 317.989 210.036C317.924 209.998 317.869 209.943 317.832 209.878L309.841 195.863C309.801 195.793 309.781 195.713 309.785 195.632C309.789 195.551 309.816 195.473 309.863 195.407C309.909 195.34 309.974 195.289 310.049 195.258C310.124 195.227 310.206 195.219 310.286 195.233L318.13 196.635C318.18 196.644 318.231 196.644 318.281 196.635L325.962 195.235C326.041 195.221 326.123 195.229 326.198 195.259C326.273 195.29 326.338 195.341 326.385 195.406C326.432 195.472 326.459 195.55 326.463 195.63C326.468 195.711 326.45 195.791 326.41 195.861V195.862Z" fill="url(#paint0_linear_401_48)"/>
<path d="M321.866 193.394L316.068 194.53C316.022 194.539 315.98 194.563 315.949 194.599C315.918 194.635 315.899 194.679 315.897 194.727L315.54 200.752C315.538 200.785 315.544 200.818 315.557 200.848C315.57 200.879 315.59 200.905 315.615 200.927C315.64 200.948 315.67 200.963 315.703 200.971C315.735 200.979 315.768 200.979 315.801 200.972L317.415 200.599C317.449 200.591 317.486 200.592 317.52 200.601C317.554 200.611 317.586 200.629 317.611 200.654C317.637 200.679 317.656 200.71 317.666 200.744C317.677 200.778 317.678 200.814 317.671 200.849L317.192 203.198C317.184 203.234 317.186 203.272 317.198 203.307C317.209 203.342 317.23 203.373 317.257 203.398C317.284 203.423 317.318 203.44 317.354 203.448C317.39 203.457 317.427 203.455 317.462 203.444L318.459 203.141C318.495 203.131 318.532 203.129 318.568 203.137C318.604 203.145 318.638 203.163 318.665 203.188C318.692 203.213 318.713 203.244 318.724 203.279C318.736 203.315 318.738 203.352 318.73 203.388L317.967 207.078C317.92 207.308 318.227 207.434 318.355 207.237L318.44 207.104L323.166 197.674C323.184 197.639 323.191 197.599 323.187 197.559C323.184 197.52 323.169 197.482 323.145 197.45C323.121 197.419 323.089 197.394 323.051 197.38C323.014 197.366 322.974 197.363 322.935 197.37L321.273 197.69C321.237 197.697 321.2 197.695 321.166 197.683C321.131 197.672 321.1 197.651 321.076 197.625C321.051 197.598 321.034 197.565 321.026 197.529C321.018 197.494 321.019 197.457 321.029 197.422L322.113 193.662C322.123 193.627 322.124 193.59 322.116 193.554C322.107 193.518 322.09 193.485 322.065 193.458C322.041 193.432 322.009 193.411 321.975 193.4C321.94 193.389 321.903 193.386 321.867 193.393L321.866 193.394Z" fill="url(#paint1_linear_401_48)"/>
<circle cx="78.9739" cy="277.511" r="15.0544" fill="white" stroke="white" stroke-width="2"/>
<g clip-path="url(#clip1_401_48)">
<path d="M74.7697 288.978C76.8798 288.978 78.5922 287.266 78.5922 285.156V281.333H74.7697C72.6597 281.333 70.9473 283.046 70.9473 285.156C70.9473 287.266 72.6597 288.978 74.7697 288.978Z" fill="#0ACF83"/>
<path d="M70.9473 277.511C70.9473 275.401 72.6597 273.688 74.7697 273.688H78.5922V281.333H74.7697C72.6597 281.333 70.9473 279.621 70.9473 277.511Z" fill="#A259FF"/>
<path d="M70.9473 269.866C70.9473 267.756 72.6597 266.043 74.7697 266.043H78.5922V273.688H74.7697C72.6597 273.688 70.9473 271.976 70.9473 269.866Z" fill="#F24E1E"/>
<path d="M78.5923 266.043H82.4148C84.5248 266.043 86.2373 267.756 86.2373 269.866C86.2373 271.976 84.5248 273.688 82.4148 273.688H78.5923V266.043Z" fill="#FF7262"/>
<path d="M86.2373 277.511C86.2373 279.621 84.5248 281.333 82.4148 281.333C80.3048 281.333 78.5923 279.621 78.5923 277.511C78.5923 275.401 80.3048 273.688 82.4148 273.688C84.5248 273.688 86.2373 275.401 86.2373 277.511Z" fill="#1ABCFE"/>
</g>
<defs>
<linearGradient id="paint0_linear_401_48" x1="309.645" y1="194.732" x2="319.398" y2="207.976" gradientUnits="userSpaceOnUse">
<stop stop-color="#41D1FF"/>
<stop offset="1" stop-color="#BD34FE"/>
</linearGradient>
<linearGradient id="paint1_linear_401_48" x1="317.679" y1="193.702" x2="319.444" y2="205.804" gradientUnits="userSpaceOnUse">
<stop stop-color="#FFEA83"/>
<stop offset="0.083" stop-color="#FFDD35"/>
<stop offset="1" stop-color="#FFA800"/>
</linearGradient>
<clipPath id="clip0_401_48">
<rect width="22.9349" height="22.9349" fill="white" transform="translate(40.5571 97.4718)"/>
</clipPath>
<clipPath id="clip1_401_48">
<rect width="15.2918" height="22.9349" fill="white" transform="translate(70.9463 266.043)"/>
</clipPath>
</defs>
</svg>
